<mxfile host="Electron" modified="2024-05-20T09:50:39.081Z" agent="Mozilla/5.0 (Macintosh; Intel Mac OS X 10_15_7) AppleWebKit/537.36 (KHTML, like Gecko) draw.io/21.6.8 Chrome/114.0.5735.289 Electron/25.5.0 Safari/537.36" etag="1hHhOWSgTSWpmvpbJ-Cl" version="21.6.8" type="device" pages="3">
  <diagram name="Page-1" id="AlJtuNpAkrnQW3puq2nh">
    <mxGraphModel dx="954" dy="674" grid="1" gridSize="10" guides="1" tooltips="1" connect="1" arrows="1" fold="1" page="1" pageScale="1" pageWidth="850" pageHeight="1100" math="0" shadow="0">
      <root>
        <mxCell id="0" />
        <mxCell id="1" parent="0" />
        <mxCell id="V6l0bIib_VsUG7r5fW92-7" value="Lifeline1" style="shape=umlLifeline;perimeter=lifelinePerimeter;whiteSpace=wrap;html=1;container=1;dropTarget=0;collapsible=0;recursiveResize=0;outlineConnect=0;portConstraint=eastwest;newEdgeStyle={&quot;edgeStyle&quot;:&quot;elbowEdgeStyle&quot;,&quot;elbow&quot;:&quot;vertical&quot;,&quot;curved&quot;:0,&quot;rounded&quot;:0};" parent="1" vertex="1">
          <mxGeometry x="320" y="280" width="100" height="300" as="geometry" />
        </mxCell>
        <mxCell id="V6l0bIib_VsUG7r5fW92-8" value="" style="html=1;points=[];perimeter=orthogonalPerimeter;outlineConnect=0;targetShapes=umlLifeline;portConstraint=eastwest;newEdgeStyle={&quot;edgeStyle&quot;:&quot;elbowEdgeStyle&quot;,&quot;elbow&quot;:&quot;vertical&quot;,&quot;curved&quot;:0,&quot;rounded&quot;:0};" parent="V6l0bIib_VsUG7r5fW92-7" vertex="1">
          <mxGeometry x="45" y="90" width="10" height="120" as="geometry" />
        </mxCell>
        <mxCell id="V6l0bIib_VsUG7r5fW92-9" value="Lifeline1" style="shape=umlLifeline;perimeter=lifelinePerimeter;whiteSpace=wrap;html=1;container=1;dropTarget=0;collapsible=0;recursiveResize=0;outlineConnect=0;portConstraint=eastwest;newEdgeStyle={&quot;edgeStyle&quot;:&quot;elbowEdgeStyle&quot;,&quot;elbow&quot;:&quot;vertical&quot;,&quot;curved&quot;:0,&quot;rounded&quot;:0};" parent="1" vertex="1">
          <mxGeometry x="640" y="280" width="100" height="300" as="geometry" />
        </mxCell>
        <mxCell id="V6l0bIib_VsUG7r5fW92-10" value="" style="html=1;points=[];perimeter=orthogonalPerimeter;outlineConnect=0;targetShapes=umlLifeline;portConstraint=eastwest;newEdgeStyle={&quot;edgeStyle&quot;:&quot;elbowEdgeStyle&quot;,&quot;elbow&quot;:&quot;vertical&quot;,&quot;curved&quot;:0,&quot;rounded&quot;:0};" parent="V6l0bIib_VsUG7r5fW92-9" vertex="1">
          <mxGeometry x="45" y="90" width="10" height="120" as="geometry" />
        </mxCell>
        <mxCell id="V6l0bIib_VsUG7r5fW92-11" value="Lifeline1" style="shape=umlLifeline;perimeter=lifelinePerimeter;whiteSpace=wrap;html=1;container=1;dropTarget=0;collapsible=0;recursiveResize=0;outlineConnect=0;portConstraint=eastwest;newEdgeStyle={&quot;edgeStyle&quot;:&quot;elbowEdgeStyle&quot;,&quot;elbow&quot;:&quot;vertical&quot;,&quot;curved&quot;:0,&quot;rounded&quot;:0};" parent="1" vertex="1">
          <mxGeometry x="480" y="280" width="100" height="300" as="geometry" />
        </mxCell>
        <mxCell id="V6l0bIib_VsUG7r5fW92-12" value="" style="html=1;points=[];perimeter=orthogonalPerimeter;outlineConnect=0;targetShapes=umlLifeline;portConstraint=eastwest;newEdgeStyle={&quot;edgeStyle&quot;:&quot;elbowEdgeStyle&quot;,&quot;elbow&quot;:&quot;vertical&quot;,&quot;curved&quot;:0,&quot;rounded&quot;:0};" parent="V6l0bIib_VsUG7r5fW92-11" vertex="1">
          <mxGeometry x="45" y="90" width="10" height="120" as="geometry" />
        </mxCell>
      </root>
    </mxGraphModel>
  </diagram>
  <diagram id="t31XhPVrsmYdhSxjxyUl" name="Page-2">
    <mxGraphModel dx="544" dy="708" grid="1" gridSize="10" guides="1" tooltips="1" connect="1" arrows="1" fold="1" page="1" pageScale="1" pageWidth="850" pageHeight="1100" math="0" shadow="0">
      <root>
        <mxCell id="0" />
        <mxCell id="1" parent="0" />
        <mxCell id="o625wYX4cswrjxEF_Xlh-19" style="edgeStyle=orthogonalEdgeStyle;rounded=0;orthogonalLoop=1;jettySize=auto;html=1;" edge="1" parent="1" source="o625wYX4cswrjxEF_Xlh-25" target="o625wYX4cswrjxEF_Xlh-15">
          <mxGeometry relative="1" as="geometry">
            <mxPoint x="520" y="370" as="sourcePoint" />
          </mxGeometry>
        </mxCell>
        <mxCell id="o625wYX4cswrjxEF_Xlh-24" style="edgeStyle=orthogonalEdgeStyle;rounded=0;orthogonalLoop=1;jettySize=auto;html=1;" edge="1" parent="1" source="o625wYX4cswrjxEF_Xlh-25" target="o625wYX4cswrjxEF_Xlh-20">
          <mxGeometry relative="1" as="geometry">
            <mxPoint x="520" y="370" as="sourcePoint" />
          </mxGeometry>
        </mxCell>
        <mxCell id="o625wYX4cswrjxEF_Xlh-37" value="" style="edgeStyle=orthogonalEdgeStyle;rounded=0;orthogonalLoop=1;jettySize=auto;html=1;" edge="1" parent="1" source="o625wYX4cswrjxEF_Xlh-15" target="o625wYX4cswrjxEF_Xlh-34">
          <mxGeometry relative="1" as="geometry" />
        </mxCell>
        <mxCell id="o625wYX4cswrjxEF_Xlh-15" value="Batch Processing" style="swimlane;fontStyle=0;childLayout=stackLayout;horizontal=1;startSize=30;horizontalStack=0;resizeParent=1;resizeParentMax=0;resizeLast=0;collapsible=1;marginBottom=0;whiteSpace=wrap;html=1;" vertex="1" parent="1">
          <mxGeometry x="320" y="480" width="140" height="90" as="geometry" />
        </mxCell>
        <mxCell id="o625wYX4cswrjxEF_Xlh-16" value="Apache Hadoop" style="text;strokeColor=none;fillColor=none;align=left;verticalAlign=middle;spacingLeft=4;spacingRight=4;overflow=hidden;points=[[0,0.5],[1,0.5]];portConstraint=eastwest;rotatable=0;whiteSpace=wrap;html=1;" vertex="1" parent="o625wYX4cswrjxEF_Xlh-15">
          <mxGeometry y="30" width="140" height="30" as="geometry" />
        </mxCell>
        <mxCell id="o625wYX4cswrjxEF_Xlh-17" value="Apache Spark" style="text;strokeColor=none;fillColor=none;align=left;verticalAlign=middle;spacingLeft=4;spacingRight=4;overflow=hidden;points=[[0,0.5],[1,0.5]];portConstraint=eastwest;rotatable=0;whiteSpace=wrap;html=1;" vertex="1" parent="o625wYX4cswrjxEF_Xlh-15">
          <mxGeometry y="60" width="140" height="30" as="geometry" />
        </mxCell>
        <mxCell id="o625wYX4cswrjxEF_Xlh-41" value="" style="edgeStyle=orthogonalEdgeStyle;rounded=0;orthogonalLoop=1;jettySize=auto;html=1;" edge="1" parent="1" source="o625wYX4cswrjxEF_Xlh-20" target="o625wYX4cswrjxEF_Xlh-38">
          <mxGeometry relative="1" as="geometry" />
        </mxCell>
        <mxCell id="o625wYX4cswrjxEF_Xlh-20" value="Stream Processing" style="swimlane;fontStyle=0;childLayout=stackLayout;horizontal=1;startSize=30;horizontalStack=0;resizeParent=1;resizeParentMax=0;resizeLast=0;collapsible=1;marginBottom=0;whiteSpace=wrap;html=1;" vertex="1" parent="1">
          <mxGeometry x="580" y="480" width="140" height="90" as="geometry" />
        </mxCell>
        <mxCell id="o625wYX4cswrjxEF_Xlh-21" value="Apache Flink" style="text;strokeColor=none;fillColor=none;align=left;verticalAlign=middle;spacingLeft=4;spacingRight=4;overflow=hidden;points=[[0,0.5],[1,0.5]];portConstraint=eastwest;rotatable=0;whiteSpace=wrap;html=1;" vertex="1" parent="o625wYX4cswrjxEF_Xlh-20">
          <mxGeometry y="30" width="140" height="30" as="geometry" />
        </mxCell>
        <mxCell id="o625wYX4cswrjxEF_Xlh-22" value="Kafka Streams" style="text;strokeColor=none;fillColor=none;align=left;verticalAlign=middle;spacingLeft=4;spacingRight=4;overflow=hidden;points=[[0,0.5],[1,0.5]];portConstraint=eastwest;rotatable=0;whiteSpace=wrap;html=1;" vertex="1" parent="o625wYX4cswrjxEF_Xlh-20">
          <mxGeometry y="60" width="140" height="30" as="geometry" />
        </mxCell>
        <mxCell id="o625wYX4cswrjxEF_Xlh-25" value="Data Ingestion" style="swimlane;fontStyle=0;childLayout=stackLayout;horizontal=1;startSize=30;horizontalStack=0;resizeParent=1;resizeParentMax=0;resizeLast=0;collapsible=1;marginBottom=0;whiteSpace=wrap;html=1;" vertex="1" parent="1">
          <mxGeometry x="450" y="330" width="140" height="90" as="geometry" />
        </mxCell>
        <mxCell id="o625wYX4cswrjxEF_Xlh-26" value="Kafka" style="text;strokeColor=none;fillColor=none;align=left;verticalAlign=middle;spacingLeft=4;spacingRight=4;overflow=hidden;points=[[0,0.5],[1,0.5]];portConstraint=eastwest;rotatable=0;whiteSpace=wrap;html=1;" vertex="1" parent="o625wYX4cswrjxEF_Xlh-25">
          <mxGeometry y="30" width="140" height="30" as="geometry" />
        </mxCell>
        <mxCell id="o625wYX4cswrjxEF_Xlh-27" value="Apache Nifi" style="text;strokeColor=none;fillColor=none;align=left;verticalAlign=middle;spacingLeft=4;spacingRight=4;overflow=hidden;points=[[0,0.5],[1,0.5]];portConstraint=eastwest;rotatable=0;whiteSpace=wrap;html=1;" vertex="1" parent="o625wYX4cswrjxEF_Xlh-25">
          <mxGeometry y="60" width="140" height="30" as="geometry" />
        </mxCell>
        <mxCell id="o625wYX4cswrjxEF_Xlh-31" style="edgeStyle=orthogonalEdgeStyle;rounded=0;orthogonalLoop=1;jettySize=auto;html=1;entryX=0.5;entryY=0;entryDx=0;entryDy=0;" edge="1" parent="1" source="o625wYX4cswrjxEF_Xlh-28" target="o625wYX4cswrjxEF_Xlh-25">
          <mxGeometry relative="1" as="geometry" />
        </mxCell>
        <mxCell id="o625wYX4cswrjxEF_Xlh-28" value="Data Source" style="swimlane;fontStyle=0;childLayout=stackLayout;horizontal=1;startSize=30;horizontalStack=0;resizeParent=1;resizeParentMax=0;resizeLast=0;collapsible=1;marginBottom=0;whiteSpace=wrap;html=1;" vertex="1" parent="1">
          <mxGeometry x="450" y="150" width="140" height="150" as="geometry" />
        </mxCell>
        <mxCell id="o625wYX4cswrjxEF_Xlh-29" value="MySQL" style="text;strokeColor=none;fillColor=none;align=left;verticalAlign=middle;spacingLeft=4;spacingRight=4;overflow=hidden;points=[[0,0.5],[1,0.5]];portConstraint=eastwest;rotatable=0;whiteSpace=wrap;html=1;" vertex="1" parent="o625wYX4cswrjxEF_Xlh-28">
          <mxGeometry y="30" width="140" height="30" as="geometry" />
        </mxCell>
        <mxCell id="o625wYX4cswrjxEF_Xlh-33" value="Cassandra" style="text;strokeColor=none;fillColor=none;align=left;verticalAlign=middle;spacingLeft=4;spacingRight=4;overflow=hidden;points=[[0,0.5],[1,0.5]];portConstraint=eastwest;rotatable=0;whiteSpace=wrap;html=1;" vertex="1" parent="o625wYX4cswrjxEF_Xlh-28">
          <mxGeometry y="60" width="140" height="30" as="geometry" />
        </mxCell>
        <mxCell id="o625wYX4cswrjxEF_Xlh-32" value="MongoDB" style="text;strokeColor=none;fillColor=none;align=left;verticalAlign=middle;spacingLeft=4;spacingRight=4;overflow=hidden;points=[[0,0.5],[1,0.5]];portConstraint=eastwest;rotatable=0;whiteSpace=wrap;html=1;" vertex="1" parent="o625wYX4cswrjxEF_Xlh-28">
          <mxGeometry y="90" width="140" height="30" as="geometry" />
        </mxCell>
        <mxCell id="o625wYX4cswrjxEF_Xlh-30" value="InfluxDB" style="text;strokeColor=none;fillColor=none;align=left;verticalAlign=middle;spacingLeft=4;spacingRight=4;overflow=hidden;points=[[0,0.5],[1,0.5]];portConstraint=eastwest;rotatable=0;whiteSpace=wrap;html=1;" vertex="1" parent="o625wYX4cswrjxEF_Xlh-28">
          <mxGeometry y="120" width="140" height="30" as="geometry" />
        </mxCell>
        <mxCell id="o625wYX4cswrjxEF_Xlh-45" value="" style="edgeStyle=orthogonalEdgeStyle;rounded=0;orthogonalLoop=1;jettySize=auto;html=1;" edge="1" parent="1" source="o625wYX4cswrjxEF_Xlh-34" target="o625wYX4cswrjxEF_Xlh-43">
          <mxGeometry relative="1" as="geometry" />
        </mxCell>
        <mxCell id="o625wYX4cswrjxEF_Xlh-34" value="Batch Storage" style="swimlane;fontStyle=0;childLayout=stackLayout;horizontal=1;startSize=30;horizontalStack=0;resizeParent=1;resizeParentMax=0;resizeLast=0;collapsible=1;marginBottom=0;whiteSpace=wrap;html=1;" vertex="1" parent="1">
          <mxGeometry x="320" y="600" width="140" height="60" as="geometry" />
        </mxCell>
        <mxCell id="o625wYX4cswrjxEF_Xlh-35" value="HDFS" style="text;strokeColor=none;fillColor=none;align=left;verticalAlign=middle;spacingLeft=4;spacingRight=4;overflow=hidden;points=[[0,0.5],[1,0.5]];portConstraint=eastwest;rotatable=0;whiteSpace=wrap;html=1;" vertex="1" parent="o625wYX4cswrjxEF_Xlh-34">
          <mxGeometry y="30" width="140" height="30" as="geometry" />
        </mxCell>
        <mxCell id="o625wYX4cswrjxEF_Xlh-56" value="" style="edgeStyle=orthogonalEdgeStyle;rounded=0;orthogonalLoop=1;jettySize=auto;html=1;" edge="1" parent="1" source="o625wYX4cswrjxEF_Xlh-38" target="o625wYX4cswrjxEF_Xlh-54">
          <mxGeometry relative="1" as="geometry" />
        </mxCell>
        <mxCell id="o625wYX4cswrjxEF_Xlh-38" value="Stream Storage" style="swimlane;fontStyle=0;childLayout=stackLayout;horizontal=1;startSize=30;horizontalStack=0;resizeParent=1;resizeParentMax=0;resizeLast=0;collapsible=1;marginBottom=0;whiteSpace=wrap;html=1;" vertex="1" parent="1">
          <mxGeometry x="580" y="600" width="140" height="60" as="geometry" />
        </mxCell>
        <mxCell id="o625wYX4cswrjxEF_Xlh-39" value="ClickHouse" style="text;strokeColor=none;fillColor=none;align=left;verticalAlign=middle;spacingLeft=4;spacingRight=4;overflow=hidden;points=[[0,0.5],[1,0.5]];portConstraint=eastwest;rotatable=0;whiteSpace=wrap;html=1;" vertex="1" parent="o625wYX4cswrjxEF_Xlh-38">
          <mxGeometry y="30" width="140" height="30" as="geometry" />
        </mxCell>
        <mxCell id="o625wYX4cswrjxEF_Xlh-51" value="" style="edgeStyle=orthogonalEdgeStyle;rounded=0;orthogonalLoop=1;jettySize=auto;html=1;" edge="1" parent="1" source="o625wYX4cswrjxEF_Xlh-43" target="o625wYX4cswrjxEF_Xlh-49">
          <mxGeometry relative="1" as="geometry" />
        </mxCell>
        <mxCell id="o625wYX4cswrjxEF_Xlh-43" value="Batch AI/ML Processing" style="swimlane;fontStyle=0;childLayout=stackLayout;horizontal=1;startSize=30;horizontalStack=0;resizeParent=1;resizeParentMax=0;resizeLast=0;collapsible=1;marginBottom=0;whiteSpace=wrap;html=1;" vertex="1" parent="1">
          <mxGeometry x="320" y="700" width="140" height="60" as="geometry" />
        </mxCell>
        <mxCell id="o625wYX4cswrjxEF_Xlh-44" value="Spark MLlib" style="text;strokeColor=none;fillColor=none;align=left;verticalAlign=middle;spacingLeft=4;spacingRight=4;overflow=hidden;points=[[0,0.5],[1,0.5]];portConstraint=eastwest;rotatable=0;whiteSpace=wrap;html=1;" vertex="1" parent="o625wYX4cswrjxEF_Xlh-43">
          <mxGeometry y="30" width="140" height="30" as="geometry" />
        </mxCell>
        <mxCell id="o625wYX4cswrjxEF_Xlh-49" value="General" style="swimlane;fontStyle=0;childLayout=stackLayout;horizontal=1;startSize=30;horizontalStack=0;resizeParent=1;resizeParentMax=0;resizeLast=0;collapsible=1;marginBottom=0;whiteSpace=wrap;html=1;" vertex="1" parent="1">
          <mxGeometry x="450" y="800" width="140" height="90" as="geometry" />
        </mxCell>
        <mxCell id="o625wYX4cswrjxEF_Xlh-50" value="BI: Superset" style="text;strokeColor=none;fillColor=none;align=left;verticalAlign=middle;spacingLeft=4;spacingRight=4;overflow=hidden;points=[[0,0.5],[1,0.5]];portConstraint=eastwest;rotatable=0;whiteSpace=wrap;html=1;" vertex="1" parent="o625wYX4cswrjxEF_Xlh-49">
          <mxGeometry y="30" width="140" height="30" as="geometry" />
        </mxCell>
        <mxCell id="o625wYX4cswrjxEF_Xlh-53" value="AI: Tensorflow, Pytorch" style="text;strokeColor=none;fillColor=none;align=left;verticalAlign=middle;spacingLeft=4;spacingRight=4;overflow=hidden;points=[[0,0.5],[1,0.5]];portConstraint=eastwest;rotatable=0;whiteSpace=wrap;html=1;" vertex="1" parent="o625wYX4cswrjxEF_Xlh-49">
          <mxGeometry y="60" width="140" height="30" as="geometry" />
        </mxCell>
        <mxCell id="o625wYX4cswrjxEF_Xlh-57" style="edgeStyle=orthogonalEdgeStyle;rounded=0;orthogonalLoop=1;jettySize=auto;html=1;entryX=0.5;entryY=0;entryDx=0;entryDy=0;" edge="1" parent="1" source="o625wYX4cswrjxEF_Xlh-54" target="o625wYX4cswrjxEF_Xlh-49">
          <mxGeometry relative="1" as="geometry" />
        </mxCell>
        <mxCell id="o625wYX4cswrjxEF_Xlh-54" value="Stream Data Visualization&amp;nbsp;" style="swimlane;fontStyle=0;childLayout=stackLayout;horizontal=1;startSize=30;horizontalStack=0;resizeParent=1;resizeParentMax=0;resizeLast=0;collapsible=1;marginBottom=0;whiteSpace=wrap;html=1;" vertex="1" parent="1">
          <mxGeometry x="580" y="700" width="140" height="60" as="geometry" />
        </mxCell>
        <mxCell id="o625wYX4cswrjxEF_Xlh-55" value="Grafana" style="text;strokeColor=none;fillColor=none;align=left;verticalAlign=middle;spacingLeft=4;spacingRight=4;overflow=hidden;points=[[0,0.5],[1,0.5]];portConstraint=eastwest;rotatable=0;whiteSpace=wrap;html=1;" vertex="1" parent="o625wYX4cswrjxEF_Xlh-54">
          <mxGeometry y="30" width="140" height="30" as="geometry" />
        </mxCell>
      </root>
    </mxGraphModel>
  </diagram>
  <diagram id="xSSx1kCuoenhcrI6ykWF" name="Page-3">
    <mxGraphModel dx="1360" dy="1770" grid="1" gridSize="10" guides="1" tooltips="1" connect="1" arrows="1" fold="1" page="1" pageScale="1" pageWidth="850" pageHeight="1100" math="0" shadow="0">
      <root>
        <mxCell id="0" />
        <mxCell id="1" parent="0" />
        <mxCell id="-Uc2XvVB4nCrt2Kibs8O-1" value="房间1" style="rounded=0;whiteSpace=wrap;html=1;" vertex="1" parent="1">
          <mxGeometry x="40" y="160" width="240" height="240" as="geometry" />
        </mxCell>
        <mxCell id="-Uc2XvVB4nCrt2Kibs8O-2" value="房间2" style="rounded=0;whiteSpace=wrap;html=1;" vertex="1" parent="1">
          <mxGeometry x="280" y="160" width="240" height="240" as="geometry" />
        </mxCell>
        <mxCell id="-Uc2XvVB4nCrt2Kibs8O-3" value="路由器1" style="fontColor=#0066CC;verticalAlign=top;verticalLabelPosition=bottom;labelPosition=center;align=center;html=1;outlineConnect=0;fillColor=#CCCCCC;strokeColor=#6881B3;gradientColor=none;gradientDirection=north;strokeWidth=2;shape=mxgraph.networks.wireless_modem;" vertex="1" parent="1">
          <mxGeometry x="208" y="201" width="50" height="50" as="geometry" />
        </mxCell>
        <mxCell id="-Uc2XvVB4nCrt2Kibs8O-4" value="墙体" style="rounded=1;whiteSpace=wrap;html=1;arcSize=0;" vertex="1" parent="1">
          <mxGeometry x="260" y="160" width="40" height="240" as="geometry" />
        </mxCell>
        <mxCell id="-Uc2XvVB4nCrt2Kibs8O-5" value="房间3" style="rounded=0;whiteSpace=wrap;html=1;" vertex="1" parent="1">
          <mxGeometry x="40" y="400" width="240" height="240" as="geometry" />
        </mxCell>
        <mxCell id="-Uc2XvVB4nCrt2Kibs8O-6" value="房间4" style="rounded=0;whiteSpace=wrap;html=1;" vertex="1" parent="1">
          <mxGeometry x="280" y="400" width="240" height="240" as="geometry" />
        </mxCell>
        <mxCell id="-Uc2XvVB4nCrt2Kibs8O-8" value="墙体" style="rounded=1;whiteSpace=wrap;html=1;arcSize=0;" vertex="1" parent="1">
          <mxGeometry x="260" y="400" width="40" height="240" as="geometry" />
        </mxCell>
        <mxCell id="-Uc2XvVB4nCrt2Kibs8O-9" value="墙体" style="rounded=0;whiteSpace=wrap;html=1;" vertex="1" parent="1">
          <mxGeometry x="40" y="380" width="240" height="40" as="geometry" />
        </mxCell>
        <mxCell id="-Uc2XvVB4nCrt2Kibs8O-10" value="墙体" style="rounded=0;whiteSpace=wrap;html=1;" vertex="1" parent="1">
          <mxGeometry x="280" y="380" width="240" height="40" as="geometry" />
        </mxCell>
        <mxCell id="-Uc2XvVB4nCrt2Kibs8O-11" value="路由器2" style="fontColor=#0066CC;verticalAlign=top;verticalLabelPosition=bottom;labelPosition=center;align=center;html=1;outlineConnect=0;fillColor=#CCCCCC;strokeColor=#6881B3;gradientColor=none;gradientDirection=north;strokeWidth=2;shape=mxgraph.networks.wireless_modem;" vertex="1" parent="1">
          <mxGeometry x="440" y="565" width="50" height="50" as="geometry" />
        </mxCell>
        <mxCell id="-Uc2XvVB4nCrt2Kibs8O-13" value="房间5" style="rounded=0;whiteSpace=wrap;html=1;" vertex="1" parent="1">
          <mxGeometry x="560" y="160" width="240" height="240" as="geometry" />
        </mxCell>
        <mxCell id="-Uc2XvVB4nCrt2Kibs8O-14" value="房间6" style="rounded=0;whiteSpace=wrap;html=1;" vertex="1" parent="1">
          <mxGeometry x="800" y="160" width="240" height="240" as="geometry" />
        </mxCell>
        <mxCell id="-Uc2XvVB4nCrt2Kibs8O-15" value="路由器3" style="fontColor=#0066CC;verticalAlign=top;verticalLabelPosition=bottom;labelPosition=center;align=center;html=1;outlineConnect=0;fillColor=#CCCCCC;strokeColor=#6881B3;gradientColor=none;gradientDirection=north;strokeWidth=2;shape=mxgraph.networks.wireless_modem;" vertex="1" parent="1">
          <mxGeometry x="728" y="201" width="50" height="50" as="geometry" />
        </mxCell>
        <mxCell id="-Uc2XvVB4nCrt2Kibs8O-16" value="墙体" style="rounded=1;whiteSpace=wrap;html=1;arcSize=0;" vertex="1" parent="1">
          <mxGeometry x="780" y="160" width="40" height="240" as="geometry" />
        </mxCell>
        <mxCell id="-Uc2XvVB4nCrt2Kibs8O-17" value="房间7" style="rounded=0;whiteSpace=wrap;html=1;" vertex="1" parent="1">
          <mxGeometry x="560" y="400" width="240" height="240" as="geometry" />
        </mxCell>
        <mxCell id="-Uc2XvVB4nCrt2Kibs8O-18" value="房间8" style="rounded=0;whiteSpace=wrap;html=1;" vertex="1" parent="1">
          <mxGeometry x="800" y="400" width="240" height="240" as="geometry" />
        </mxCell>
        <mxCell id="-Uc2XvVB4nCrt2Kibs8O-19" value="墙体" style="rounded=1;whiteSpace=wrap;html=1;arcSize=0;" vertex="1" parent="1">
          <mxGeometry x="780" y="400" width="40" height="240" as="geometry" />
        </mxCell>
        <mxCell id="-Uc2XvVB4nCrt2Kibs8O-20" value="墙体" style="rounded=0;whiteSpace=wrap;html=1;" vertex="1" parent="1">
          <mxGeometry x="560" y="380" width="240" height="40" as="geometry" />
        </mxCell>
        <mxCell id="-Uc2XvVB4nCrt2Kibs8O-21" value="墙体" style="rounded=0;whiteSpace=wrap;html=1;" vertex="1" parent="1">
          <mxGeometry x="800" y="380" width="240" height="40" as="geometry" />
        </mxCell>
      </root>
    </mxGraphModel>
  </diagram>
</mxfile>
